<svg xmlns="http://www.w3.org/2000/svg" fill="none">
<mask id="mask0" mask-type="alpha" maskUnits="userSpaceOnUse" x="2" y="2" width="20" height="20">
<circle cx="12" cy="12" r="9.54545" fill="#C4C4C4" stroke="black" stroke-width="0.909091"/>
</mask>
<g mask="url(#mask0)">
<path d="M5.40717 2.82031H18.916V21.0019H5.40717V2.82031Z" fill="white"/>
<path d="M-1.34546 2.82031H5.63635V21.0019H-1.34546V2.82031ZM18.3599 2.82031H25.6685V21.0019H18.3636L18.3599 2.82031ZM7.43175 11.6057L6.90228 11.7761L9.34454 13.818C9.53097 14.34 9.28115 14.4927 9.12082 14.7697L11.7682 14.4501L11.7048 16.9891L12.2566 16.9749L12.1336 14.4537L14.7883 14.7555C14.6243 14.4253 14.4789 14.2512 14.628 13.7257L17.0665 11.7903L16.6415 11.6412C16.291 11.3855 16.7906 10.409 16.8652 9.79109C16.8652 9.79109 15.4446 10.2563 15.3514 10.0113L14.986 9.3472L13.6921 10.7037C13.5504 10.7357 13.4908 10.6824 13.4572 10.5688L14.0538 7.73501L13.1067 8.24282C13.0284 8.27833 12.9501 8.24992 12.8979 8.16114L11.9844 6.42111L11.0448 8.22861C10.974 8.29253 10.9031 8.29963 10.8435 8.25702L9.94112 7.77407L10.4855 10.583C10.4408 10.6966 10.3364 10.725 10.217 10.6647L8.9754 9.3259C8.81507 9.57447 8.70694 9.97574 8.49068 10.0681C8.27815 10.1533 7.55852 9.89762 7.07753 9.79819C7.24159 10.3628 7.75614 11.3003 7.43175 11.6092V11.6057Z" fill="#FF0000"/>
</g>
<circle cx="12" cy="12" r="10" stroke="#FF0000" stroke-width="0.454545"/>
</svg>